<?xml version="1.0" standalone="no"?>
<!DOCTYPE svg PUBLIC "-//W3C//DTD SVG 20010904//EN"
 "http://www.w3.org/TR/2001/REC-SVG-20010904/DTD/svg10.dtd">
<svg version="1.0" xmlns="http://www.w3.org/2000/svg"
 width="213.000000pt" height="237.000000pt" viewBox="0 0 213.000000 237.000000"
 preserveAspectRatio="xMidYMid meet">
<metadata>
Created by potrace 1.16, written by Peter Selinger 2001-2019
</metadata>
<g transform="translate(0.000000,237.000000) scale(0.100000,-0.100000)"
fill="#000000" stroke="none">
<path d="M704 2356 c-95 -22 -181 -71 -254 -145 -229 -232 -191 -606 79 -785
64 -43 71 -51 71 -81 0 -32 -1 -33 -67 -49 -120 -30 -209 -81 -298 -170 -156
-156 -216 -337 -230 -691 -5 -114 -3 -156 7 -175 62 -116 390 -191 903 -206
l190 -6 -30 20 c-35 23 -174 256 -182 307 -8 50 14 101 58 137 35 28 39 36 39
77 0 41 -4 48 -34 68 -18 11 -40 37 -49 56 -30 62 -23 93 53 227 39 68 78 133
88 143 42 47 120 61 177 31 28 -15 32 -14 73 7 61 34 57 57 -19 102 -34 20
-102 49 -150 64 l-89 28 0 36 c0 31 5 38 38 57 102 57 197 175 232 289 25 81
27 216 4 294 -48 164 -171 294 -329 349 -77 27 -202 34 -281 16z"/>
<path d="M1440 1105 c0 -54 -3 -67 -17 -72 -58 -19 -124 -54 -157 -84 l-39
-33 -58 32 -58 32 -55 -94 c-31 -52 -56 -99 -56 -103 0 -5 25 -22 55 -38 l54
-30 -7 -40 c-9 -50 -9 -129 0 -177 7 -37 6 -38 -48 -68 -30 -17 -54 -34 -54
-38 0 -14 106 -192 115 -192 6 0 32 13 59 29 l49 29 46 -36 c47 -36 136 -82
159 -82 8 0 12 -21 12 -70 l0 -70 120 0 120 0 0 70 c0 52 3 70 14 70 24 0 151
68 176 94 l23 26 58 -32 c32 -18 60 -30 63 -28 2 3 29 48 59 100 l55 95 -59
33 c-56 32 -58 35 -51 65 8 37 9 148 2 192 -5 26 0 32 47 60 29 16 53 34 53
39 0 9 -83 158 -103 183 -6 9 -22 5 -63 -18 l-54 -31 -51 38 c-28 20 -76 47
-107 60 l-57 23 -3 65 -3 66 -119 0 -120 0 0 -65z m201 -245 c132 -37 224
-186 199 -320 -36 -188 -233 -290 -402 -207 -104 51 -158 141 -158 261 0 94
41 166 132 235 50 37 155 51 229 31z"/>
</g>
</svg>
