<?xml version="1.0" standalone="no"?>
<!DOCTYPE svg PUBLIC "-//W3C//DTD SVG 20010904//EN"
 "http://www.w3.org/TR/2001/REC-SVG-20010904/DTD/svg10.dtd">
<svg version="1.0" xmlns="http://www.w3.org/2000/svg"
 width="212.000000pt" height="238.000000pt" viewBox="0 0 212.000000 238.000000"
 preserveAspectRatio="xMidYMid meet">
<metadata>
Created by potrace 1.16, written by Peter Selinger 2001-2019
</metadata>
<g transform="translate(0.000000,238.000000) scale(0.100000,-0.100000)"
fill="#000000" stroke="none">
<path d="M914 2270 c-11 -4 -58 -50 -105 -101 -200 -220 -656 -727 -681 -756
-80 -97 -99 -323 -37 -445 19 -37 19 -38 -1 -75 -45 -84 -47 -206 -5 -307 18
-44 78 -112 114 -131 41 -21 1060 -345 1086 -345 12 0 32 8 43 17 42 37 732
885 738 907 3 12 -4 46 -17 77 -31 77 -31 198 0 299 20 65 21 79 10 112 -9 29
-9 46 0 80 13 47 5 84 -24 108 -23 19 -80 18 -103 -4 -25 -22 -44 -88 -46
-159 l-1 -56 -310 -382 c-170 -210 -313 -386 -316 -392 -4 -6 -192 46 -490
137 -266 81 -494 151 -506 156 -37 15 -57 137 -32 193 12 26 47 47 80 47 11 0
147 -38 302 -85 670 -204 615 -189 641 -172 13 9 201 224 417 478 346 408 393
467 393 496 0 18 -7 41 -16 50 -11 10 -204 59 -560 139 -299 68 -545 123 -548
123 -3 0 -14 -4 -26 -9z m297 -346 c151 -36 280 -72 288 -79 12 -12 12 -17 -1
-37 -37 -56 -76 -88 -107 -88 -18 0 -141 26 -274 59 -133 32 -256 62 -274 66
-45 9 -59 29 -41 57 36 54 76 88 106 88 16 0 152 -30 303 -66z m567 -992
c-421 -512 -532 -643 -543 -638 -7 2 -221 70 -476 151 -255 81 -472 151 -482
157 -27 14 -57 86 -57 136 0 48 25 106 43 99 75 -28 1001 -307 1019 -307 14 0
35 8 46 17 11 10 134 159 273 332 l253 314 19 -62 18 -61 -113 -138z"/>
</g>
</svg>
