<?xml version="1.0" standalone="no"?>
<!DOCTYPE svg PUBLIC "-//W3C//DTD SVG 20010904//EN"
 "http://www.w3.org/TR/2001/REC-SVG-20010904/DTD/svg10.dtd">
<svg version="1.0" xmlns="http://www.w3.org/2000/svg"
 width="225.000000pt" height="225.000000pt" viewBox="0 0 225.000000 225.000000"
 preserveAspectRatio="xMidYMid meet">
<metadata>
Created by potrace 1.16, written by Peter Selinger 2001-2019
</metadata>
<g transform="translate(0.000000,225.000000) scale(0.100000,-0.100000)"
fill="#000000" stroke="none">
<path d="M1350 2211 c-294 -9 -275 30 -271 -540 1 -239 6 -444 11 -455 4 -12
22 -34 40 -51 l31 -30 224 -3 224 -3 3 -147 3 -147 25 -3 c20 -2 52 25 175
148 l150 150 70 0 c81 0 123 20 155 72 19 32 20 52 20 466 0 485 0 481 -69
524 -35 22 -43 23 -321 24 -157 0 -368 -2 -470 -5z m757 -90 c19 -18 20 -34
27 -428 4 -224 4 -417 0 -428 -17 -47 -33 -55 -117 -55 l-80 0 -124 -122 -123
-122 0 102 c0 151 13 144 -265 140 -222 -3 -224 -3 -247 20 l-23 23 -3 406
c-3 428 -1 451 41 471 14 7 174 11 458 11 414 1 436 0 456 -18z"/>
<path d="M1578 2030 c-116 -20 -222 -100 -274 -208 -25 -50 -28 -69 -29 -152
0 -88 3 -101 32 -161 39 -79 102 -140 181 -177 49 -23 70 -27 152 -27 85 0
101 3 154 29 218 107 278 383 125 569 -79 96 -218 148 -341 127z m90 -236 l3
-111 40 -33 c28 -22 39 -38 37 -53 -5 -33 -34 -32 -81 4 -67 51 -67 52 -67
174 0 117 7 138 45 133 18 -3 20 -12 23 -114z"/>
<path d="M488 1629 c-3 -418 -4 -453 -20 -463 -13 -8 -23 -8 -35 0 -17 10 -18
45 -21 458 -2 357 -5 446 -15 446 -33 0 -103 -59 -132 -111 l-30 -54 -3 -512
c-1 -282 -1 -513 1 -513 2 0 47 29 102 65 65 43 108 65 128 65 62 0 140 -118
123 -186 l-6 -24 340 0 c348 0 369 2 397 39 8 10 12 52 13 113 l0 96 -93 4
c-82 3 -99 6 -135 31 -23 15 -54 46 -69 69 l-28 41 -6 391 c-4 215 -7 415 -8
444 l-1 52 -250 0 -250 0 -2 -451z"/>
<path d="M128 930 c-103 -136 -115 -314 -37 -586 18 -63 32 -140 37 -205 l7
-104 260 -3 c143 -1 270 0 283 3 21 5 22 9 22 125 0 118 0 120 36 184 23 43
37 84 41 121 l6 55 268 0 c245 0 269 1 277 17 10 20 5 44 -12 55 -6 4 -179 8
-385 8 -351 0 -373 -1 -366 -17 20 -51 26 -85 27 -155 1 -82 -10 -108 -43
-108 -21 0 -21 -4 -23 110 -1 94 -21 151 -75 219 l-30 38 35 34 c20 19 43 47
51 63 29 56 -1 156 -46 156 -9 0 -58 -28 -109 -61 -121 -80 -142 -114 -153
-246 -5 -53 -11 -98 -14 -101 -3 -3 -16 4 -28 16 -18 19 -22 34 -22 85 0 34 6
87 13 117 8 30 12 91 10 135 l-3 80 -27 -35z"/>
<path d="M626 727 c-11 -8 -17 -23 -14 -38 l3 -24 339 -3 c242 -2 343 1 352 9
20 16 17 47 -5 59 -31 16 -652 14 -675 -3z"/>
</g>
</svg>
