<?xml version="1.0" standalone="no"?>
<!DOCTYPE svg PUBLIC "-//W3C//DTD SVG 20010904//EN"
 "http://www.w3.org/TR/2001/REC-SVG-20010904/DTD/svg10.dtd">
<svg version="1.0" xmlns="http://www.w3.org/2000/svg"
 width="512.000000pt" height="512.000000pt" viewBox="0 0 512.000000 512.000000"
 preserveAspectRatio="xMidYMid meet">
<metadata>
Created by potrace 1.16, written by Peter Selinger 2001-2019
</metadata>
<g transform="translate(0.000000,512.000000) scale(0.100000,-0.100000)"
fill="#000000" stroke="none">
<path d="M180 4460 c-20 -20 -20 -33 -20 -1900 0 -1867 0 -1880 20 -1900 20
-20 33 -20 2380 -20 2355 0 2360 0 2380 20 20 20 20 29 18 938 l-3 917 -29 60
c-38 77 -114 153 -191 190 -50 25 -74 30 -157 33 l-98 4 0 279 0 279 220 0
c207 0 221 1 240 20 19 19 20 33 20 500 0 467 -1 481 -20 500 -20 20 -33 20
-780 20 -747 0 -760 0 -780 -20 -19 -19 -20 -33 -20 -500 0 -467 1 -481 20
-500 19 -19 33 -20 320 -20 l300 0 0 -160 0 -160 -49 0 c-34 0 -56 6 -75 21
-64 51 -112 59 -330 59 l-203 0 -68 183 c-74 198 -104 264 -143 315 -38 50
-125 108 -192 128 l-60 18 0 220 c0 192 -3 226 -19 261 -46 101 -131 155 -243
155 -38 0 -84 -6 -102 -14 -42 -17 -246 -153 -263 -174 -10 -12 -13 -74 -13
-233 l0 -217 -98 -4 c-83 -3 -107 -8 -157 -33 -77 -37 -153 -113 -191 -190
l-29 -60 0 -276 0 -276 31 -60 31 -60 -56 -6 c-32 -4 -79 -18 -113 -36 l-58
-30 0 855 c0 841 0 854 -20 874 -20 20 -33 20 -700 20 -667 0 -680 0 -700 -20z
m440 -211 c19 -39 42 -75 52 -80 9 -5 103 -9 208 -9 105 0 199 4 208 9 10 5
33 41 52 80 l34 71 133 0 133 0 0 -520 0 -520 -560 0 -560 0 0 520 0 520 133
0 133 0 34 -71z m2063 -47 c16 -17 28 -45 32 -74 l7 -48 -161 0 c-193 0 -198
5 -85 80 125 85 160 92 207 42z m2117 -322 l0 -360 -160 0 -160 0 0 220 c0
207 -1 221 -20 240 -19 19 -33 20 -220 20 -187 0 -201 -1 -220 -20 -19 -19
-20 -33 -20 -240 l0 -220 -240 0 -240 0 0 360 0 360 640 0 640 0 0 -360z
m-2082 -59 c-4 -74 -10 -107 -24 -132 -62 -106 -206 -106 -268 0 -14 25 -20
58 -24 132 l-5 99 163 0 163 0 -5 -99z m1602 -501 l0 -520 -160 0 -160 0 0 40
0 40 60 0 c107 0 100 -35 100 500 l0 460 80 0 80 0 0 -520z m-2019 245 c29
-43 94 -91 150 -110 53 -19 165 -19 218 0 54 19 121 67 146 105 23 35 44 37
101 11 76 -35 104 -81 200 -339 49 -130 97 -245 106 -254 15 -15 36 -18 118
-18 l100 0 0 -80 0 -80 -160 0 -160 0 0 35 c0 102 -90 225 -195 264 -51 19
-77 21 -298 21 l-243 0 -29 91 c-16 50 -32 92 -36 95 -6 4 -148 -41 -157 -50
-8 -9 81 -259 99 -277 17 -17 35 -19 159 -19 l140 0 0 -81 0 -81 -222 4 c-254
4 -283 11 -349 85 -58 64 -64 93 -64 313 0 219 6 249 63 312 57 63 115 85 233
87 54 1 58 -1 80 -34z m-1681 -516 c19 -39 42 -75 52 -80 9 -5 103 -9 208 -9
105 0 199 4 208 9 10 5 33 41 52 80 l34 71 133 0 133 0 0 -520 0 -520 -560 0
-560 0 0 520 0 520 133 0 133 0 34 -71z m2254 -117 c38 -22 76 -77 76 -108 0
-24 -1 -24 -115 -24 l-115 0 0 81 0 82 62 -7 c33 -3 75 -14 92 -24z m880 0
c38 -22 76 -77 76 -108 0 -24 -1 -24 -115 -24 l-115 0 0 81 0 82 62 -7 c33 -3
75 -14 92 -24z m891 -315 c54 -24 103 -73 129 -127 21 -45 21 -53 24 -867 l3
-823 -1601 0 -1601 0 3 823 c3 767 4 825 21 862 34 76 100 129 180 145 23 4
663 7 1422 7 1306 -2 1382 -3 1420 -20z m-4025 -768 c19 -39 42 -75 52 -80 22
-12 394 -12 416 0 10 5 33 41 52 80 l34 71 133 0 133 0 0 -560 0 -560 -560 0
-560 0 0 560 0 560 133 0 133 0 34 -71z"/>
<path d="M2340 2300 c-19 -19 -20 -33 -20 -540 0 -507 1 -521 20 -540 20 -20
33 -20 860 -20 827 0 840 0 860 20 19 19 20 33 20 540 0 507 -1 521 -20 540
-20 20 -33 20 -860 20 -827 0 -840 0 -860 -20z m1580 -540 l0 -400 -720 0
-720 0 0 400 0 400 720 0 720 0 0 -400z"/>
<path d="M2800 1920 l0 -80 160 0 160 0 0 80 0 80 -160 0 -160 0 0 -80z"/>
<path d="M3280 1920 l0 -80 160 0 160 0 0 80 0 80 -160 0 -160 0 0 -80z"/>
<path d="M2640 1600 l0 -80 120 0 120 0 0 80 0 80 -120 0 -120 0 0 -80z"/>
<path d="M3040 1600 l0 -80 360 0 360 0 0 80 0 80 -360 0 -360 0 0 -80z"/>
</g>
</svg>
