<?xml version="1.0" standalone="no"?>
<!DOCTYPE svg PUBLIC "-//W3C//DTD SVG 20010904//EN"
 "http://www.w3.org/TR/2001/REC-SVG-20010904/DTD/svg10.dtd">
<svg version="1.0" xmlns="http://www.w3.org/2000/svg"
 width="5120.000000pt" height="5120.000000pt" viewBox="0 0 5120.000000 5120.000000"
 preserveAspectRatio="xMidYMid meet">
<metadata>
Created by potrace 1.16, written by Peter Selinger 2001-2019
</metadata>
<g transform="translate(0.000000,5120.000000) scale(0.100000,-0.100000)"
fill="#000000" stroke="none">
<path d="M24845 51189 c-4602 -139 -9022 -1498 -12915 -3972 -1335 -848 -2643
-1863 -3800 -2946 -379 -355 -990 -972 -1336 -1346 -1198 -1299 -2276 -2742
-3181 -4255 -2701 -4514 -3930 -9706 -3542 -14965 411 -5586 2668 -10886 6434
-15110 599 -672 1325 -1402 1995 -2005 2830 -2547 6167 -4430 9776 -5515 4767
-1433 9881 -1433 14648 0 3609 1085 6946 2968 9776 5515 670 603 1396 1333
1995 2005 2504 2809 4357 6113 5430 9681 896 2978 1235 6092 1004 9219 -411
5586 -2668 10886 -6434 15110 -599 672 -1325 1402 -1995 2005 -4296 3868
-9698 6157 -15420 6534 -768 51 -1682 68 -2435 45z m1640 -2639 c1985 -82
3844 -393 5713 -956 2750 -828 5382 -2208 7637 -4004 2478 -1973 4497 -4381
5995 -7150 166 -307 541 -1060 679 -1365 1184 -2609 1859 -5338 2021 -8165 46
-823 46 -1797 0 -2620 -212 -3715 -1327 -7308 -3258 -10505 -2028 -3356 -4881
-6148 -8286 -8110 -552 -318 -1361 -735 -1911 -984 -2496 -1133 -5083 -1795
-7790 -1996 -957 -70 -2035 -79 -2995 -24 -2896 165 -5720 877 -8345 2104
-4142 1935 -7647 5087 -10017 9010 -673 1114 -1259 2301 -1730 3505 -874 2235
-1391 4600 -1528 7000 -46 823 -46 1797 0 2620 223 3895 1438 7657 3543 10964
1648 2590 3817 4846 6352 6607 1474 1024 3113 1896 4783 2543 2502 970 5089
1480 7822 1540 237 5 1056 -4 1315 -14z"/>
<path d="M16285 41458 c-421 -47 -847 -226 -1180 -495 -467 -377 -770 -929
-834 -1525 -8 -66 -11 -868 -11 -2465 0 -1994 2 -2387 14 -2484 51 -410 204
-781 458 -1117 66 -86 75 -104 61 -109 -63 -23 -207 -89 -280 -129 -660 -359
-1105 -1026 -1183 -1769 -8 -81 -10 -800 -8 -2690 l4 -2580 22 -110 c11 -60
37 -166 56 -235 l34 -125 -323 -895 c-178 -492 -782 -2166 -1343 -3720 -561
-1554 -1065 -2950 -1121 -3104 -55 -153 -102 -281 -105 -283 -3 -3 -133 63
-289 146 -157 83 -287 151 -290 151 -3 0 -9 -503 -12 -1118 -6 -1346 -7 -973
3 -3092 9 -1930 5 -1812 67 -2075 157 -668 584 -1240 1179 -1581 270 -154 548
-251 866 -301 110 -17 654 -18 13540 -18 12925 0 13429 1 13538 18 226 36 455
103 641 187 758 342 1291 1027 1431 1841 11 69 25 211 30 319 11 231 13 5897
2 5904 -4 2 -155 -59 -336 -135 -181 -77 -330 -138 -331 -137 -2 2 -287 788
-633 1748 -347 960 -986 2732 -1422 3939 l-792 2193 31 107 c17 58 38 140 46
181 46 216 45 138 45 2842 0 2727 1 2647 -46 2863 -97 439 -302 813 -618 1131
-351 352 -764 562 -1276 651 -100 17 -334 18 -5247 20 -2829 2 -5143 5 -5143
6 0 2 29 48 66 102 174 261 297 585 351 925 17 109 18 244 18 2535 0 2600 3
2467 -51 2712 -131 594 -506 1120 -1034 1448 -276 171 -621 289 -952 324 -123
14 -7524 13 -7643 -1z m7543 -909 c612 -66 1092 -514 1209 -1129 17 -90 18
-219 18 -2435 0 -2230 -1 -2345 -18 -2445 -34 -189 -101 -362 -200 -512 -30
-46 -294 -407 -587 -803 l-532 -720 6013 -5 c5488 -5 6020 -7 6084 -22 211
-49 316 -88 463 -174 279 -164 488 -421 596 -732 77 -222 71 25 71 -2822 0
-2919 12 -2583 -107 -2934 l-72 -210 26 -70 c74 -200 2598 -7191 3068 -8496
128 -355 236 -649 240 -654 5 -4 58 21 118 58 60 36 113 66 116 66 4 0 5
-1018 3 -2262 l-3 -2263 -22 -96 c-74 -324 -206 -564 -431 -790 -269 -268
-582 -416 -954 -449 -88 -8 -3856 -10 -13397 -8 -12863 3 -13278 4 -13370 21
-492 96 -893 393 -1113 824 -98 193 -149 372 -167 591 -11 138 -14 4322 -2
4322 4 0 44 -20 88 -44 l82 -44 85 237 c47 130 349 965 670 1856 322 891 957
2651 1412 3910 455 1260 876 2426 936 2593 60 167 143 394 184 505 l75 202
-65 194 c-36 107 -75 239 -88 295 l-22 101 0 2545 0 2545 23 105 c79 357 290
671 581 864 124 83 246 133 881 366 349 128 638 235 642 239 3 3 -176 215
-398 471 -223 256 -440 508 -482 560 -174 214 -271 445 -302 716 -8 71 -10
749 -8 2429 l4 2330 21 90 c50 211 132 390 250 546 225 300 566 495 939 538
109 13 7326 13 7442 0z"/>
<path d="M16395 39619 c-134 -46 -246 -159 -285 -287 -20 -67 -20 -79 -18
-2378 l3 -2310 38 -76 c62 -126 179 -218 315 -247 38 -8 510 -11 1632 -11
l1580 0 0 -1365 0 -1365 -2064 0 c-1994 0 -2066 -1 -2125 -19 -33 -10 -80 -30
-103 -44 -65 -38 -145 -128 -181 -204 l-32 -68 -3 -2475 c-2 -2464 -2 -2475
18 -2542 39 -128 154 -244 290 -293 55 -20 117 -20 10085 -23 6909 -2 10052 1
10100 8 202 30 359 190 385 395 7 54 10 861 8 2485 l-3 2405 -23 63 c-54 149
-155 247 -301 292 -62 20 -137 20 -7602 20 l-7539 0 0 1365 0 1365 1574 0
c1012 0 1592 4 1627 10 127 24 258 120 314 231 58 113 55 -34 55 2424 0 2484
4 2325 -57 2437 -37 69 -130 153 -210 191 l-68 32 -3675 2 -3675 2 -60 -20z
m18218 -8744 c140 -29 251 -118 315 -252 l37 -78 3 -1674 c3 -1819 5 -1717
-50 -1825 -27 -53 -112 -142 -166 -173 -175 -103 -404 -76 -548 63 -55 54 -88
108 -114 183 -20 61 -20 71 -18 1749 l3 1687 31 65 c60 127 176 222 310 254
76 19 114 19 197 1z m-12108 -220 c154 -40 288 -179 324 -336 14 -60 14 -2908
0 -2968 -35 -154 -157 -285 -310 -332 -59 -18 -143 -19 -3022 -19 -1960 0
-2977 4 -3006 11 -115 26 -238 121 -294 226 -58 109 -57 61 -57 1598 0 1537
-1 1489 57 1597 56 103 167 191 283 224 36 10 665 12 3005 13 2637 1 2967 -1
3020 -14z m4032 1 c176 -47 305 -189 336 -371 32 -187 -73 -384 -251 -472
l-76 -38 -590 0 -591 0 -68 32 c-291 138 -357 502 -132 729 60 61 137 105 212
123 21 5 279 9 573 10 424 1 546 -2 587 -13z m2692 3 c158 -36 296 -169 336
-324 55 -213 -43 -423 -244 -523 l-75 -37 -591 0 -591 0 -75 37 c-176 87 -281
281 -252 468 28 182 157 327 333 376 57 16 1091 19 1159 3z m2714 -4 c81 -21
132 -50 195 -108 95 -91 142 -201 142 -333 0 -205 -140 -384 -340 -434 -31 -7
-218 -10 -610 -8 l-565 3 -70 34 c-380 187 -330 736 77 845 80 22 1089 22
1171 1z m-5414 -1530 c229 -54 379 -276 343 -507 -29 -190 -176 -341 -367
-378 -42 -8 -219 -10 -585 -8 -590 4 -574 2 -690 80 -73 48 -139 132 -170 216
-93 249 51 526 310 594 57 15 129 17 580 17 426 1 526 -2 579 -14z m2682 5
c211 -40 369 -230 369 -445 0 -209 -146 -391 -351 -440 -53 -12 -153 -15 -565
-15 -316 0 -522 4 -560 11 -237 43 -406 278 -366 511 32 183 159 325 332 370
57 15 129 17 576 17 309 1 533 -3 565 -9z m2700 0 c216 -41 369 -226 369 -445
0 -220 -155 -405 -373 -445 -37 -7 -244 -10 -584 -8 l-528 3 -60 24 c-163 65
-269 197 -295 367 -34 221 121 446 345 500 64 16 1046 19 1126 4z m-5426
-1530 c248 -35 429 -275 388 -515 -31 -182 -161 -324 -338 -371 -74 -20 -1088
-20 -1162 0 -83 22 -144 57 -204 117 -225 221 -166 586 116 725 38 19 97 38
130 43 84 12 985 13 1070 1z m2783 -18 c149 -53 247 -155 292 -301 49 -158 7
-326 -114 -447 -63 -62 -138 -105 -217 -123 -27 -7 -253 -11 -575 -11 -576 0
-575 0 -689 57 -67 34 -147 119 -185 196 -84 172 -55 365 77 507 68 74 168
127 263 139 36 5 295 8 575 7 503 -1 511 -2 573 -24z m2711 -1 c180 -66 301
-237 301 -425 0 -168 -84 -313 -230 -399 -95 -55 -118 -57 -690 -57 -440 0
-535 2 -585 15 -340 89 -454 507 -206 756 71 71 160 116 253 129 34 4 295 7
578 6 511 -2 515 -2 579 -25z"/>
<path d="M18728 28833 c419 -2 1105 -2 1525 0 419 1 76 2 -763 2 -839 0 -1182
-1 -762 -2z"/>
<path d="M15484 25406 c-115 -36 -216 -148 -296 -331 -15 -33 -193 -521 -396
-1085 -795 -2203 -2429 -6727 -2714 -7515 -342 -943 -330 -898 -268 -1013 56
-106 175 -191 315 -227 53 -13 1510 -15 13457 -15 9858 0 13411 3 13450 11
224 48 399 244 359 403 -9 36 -753 2103 -1921 5336 -49 135 -400 1107 -780
2160 -394 1093 -711 1956 -737 2010 -62 124 -159 226 -246 259 l-58 21 -10062
-1 c-8164 0 -10070 -3 -10103 -13z m3881 -1304 c167 -47 317 -142 381 -243
113 -180 30 -386 -205 -508 -45 -23 -125 -54 -179 -69 l-97 -26 -775 -4 c-810
-4 -900 0 -1042 39 -105 29 -222 94 -288 159 -76 75 -104 134 -108 233 -4 71
-1 84 27 142 54 109 186 210 339 260 132 43 159 44 1032 42 831 -2 835 -3 915
-25z m4800 0 c176 -48 328 -152 390 -263 27 -49 30 -63 30 -144 0 -76 -4 -98
-25 -140 -40 -80 -129 -159 -234 -210 -195 -94 -235 -97 -1181 -92 -672 3
-779 6 -838 20 -288 71 -462 229 -462 422 0 57 5 81 28 127 69 140 239 248
463 293 56 11 228 13 909 12 834 -2 841 -3 920 -25z m4720 5 c212 -62 349
-156 412 -284 38 -77 39 -183 4 -256 -51 -103 -162 -196 -298 -249 -161 -62
-137 -61 -973 -65 -797 -5 -914 -1 -1043 36 -177 51 -313 147 -375 266 -37 69
-39 197 -4 267 51 104 159 192 302 247 154 60 154 60 1075 57 765 -2 845 -4
900 -19z m4810 -5 c116 -32 235 -94 305 -158 286 -266 56 -623 -440 -684 -112
-13 -1494 -13 -1615 0 -192 22 -353 89 -457 191 -253 247 -58 583 385 664 57
11 252 13 907 12 829 -2 836 -3 915 -25z m-14773 -2249 c182 -52 327 -155 388
-275 25 -51 30 -73 30 -133 0 -60 -5 -82 -30 -133 -61 -120 -206 -223 -388
-275 -76 -21 -89 -22 -912 -25 -595 -2 -856 0 -908 8 -222 35 -413 153 -480
297 -38 81 -38 175 0 256 48 102 171 201 312 253 148 54 134 53 1056 51 846
-2 856 -3 932 -24z m4714 16 c158 -28 300 -95 390 -184 84 -84 109 -138 109
-240 0 -101 -25 -156 -110 -241 -46 -47 -84 -72 -155 -107 -181 -87 -120 -82
-1105 -82 -985 0 -924 -5 -1105 82 -71 35 -109 60 -155 107 -85 85 -110 140
-110 241 0 102 25 156 109 240 88 87 213 148 366 180 83 17 1672 21 1766 4z
m5656 -3 c165 -32 278 -87 374 -181 55 -54 76 -83 93 -128 66 -179 -29 -355
-251 -462 -177 -86 -163 -85 -1099 -85 -526 0 -836 4 -875 11 -214 38 -391
144 -465 281 -31 57 -34 71 -34 143 0 72 3 86 34 143 73 133 227 230 442 277
95 20 1674 21 1781 1z m4883 -19 c185 -58 317 -155 373 -274 21 -46 27 -73 27
-128 0 -177 -144 -322 -400 -402 l-90 -28 -847 -3 c-813 -3 -851 -2 -944 17
-189 39 -360 147 -429 273 -27 48 -30 62 -30 143 0 81 3 95 30 143 67 122 239
233 421 272 84 18 138 19 944 17 l855 -2 90 -28z m-15755 -2230 c172 -42 281
-99 370 -194 216 -230 67 -523 -325 -635 -80 -22 -81 -23 -908 -26 -713 -2
-841 -1 -918 13 -426 73 -630 396 -406 642 106 116 265 188 466 213 36 4 424
7 861 6 689 -3 804 -5 860 -19z m4832 -9 c120 -33 243 -95 314 -160 115 -106
151 -257 91 -380 -58 -118 -194 -216 -382 -275 l-90 -28 -870 0 -870 0 -80 22
c-189 53 -336 157 -396 278 -28 58 -31 71 -27 142 2 56 10 92 27 127 72 146
288 267 526 296 39 4 428 7 865 6 l795 -2 97 -26z m6413 22 c121 -14 194 -34
290 -79 184 -87 276 -206 276 -360 0 -174 -172 -335 -431 -404 -85 -22 -86
-22 -940 -22 l-855 0 -85 23 c-122 32 -240 91 -307 154 -68 65 -97 109 -118
183 -67 230 191 467 550 505 111 12 1517 11 1620 0z m4795 -1 c246 -25 450
-136 537 -293 25 -45 28 -61 28 -136 0 -107 -24 -160 -110 -245 -72 -72 -188
-134 -315 -167 l-85 -23 -860 0 -860 0 -83 23 c-110 30 -181 62 -258 117 -196
140 -229 354 -78 515 107 114 274 189 469 210 112 12 1499 11 1615 -1z
m-16460 -2267 c190 -51 349 -160 407 -280 39 -82 39 -184 -2 -265 -62 -124
-218 -230 -410 -279 l-90 -23 -845 0 c-774 0 -851 1 -914 18 -212 54 -364 156
-428 286 -18 37 -23 63 -23 131 0 97 18 145 82 220 81 94 272 186 438 209 33
5 429 8 880 7 815 -2 820 -2 905 -24z m4780 5 c145 -39 242 -86 322 -157 246
-216 133 -526 -234 -648 -154 -51 -209 -54 -1073 -50 -854 4 -823 3 -975 59
-139 52 -251 143 -302 246 -121 247 107 503 500 562 31 5 426 8 877 7 742 -2
826 -4 885 -19z m7470 -5 c189 -50 344 -157 405 -279 24 -48 29 -70 29 -133 0
-63 -5 -85 -29 -133 -62 -124 -218 -230 -410 -279 l-90 -23 -845 0 c-774 0
-851 1 -914 18 -212 54 -364 156 -428 286 -33 66 -33 196 0 263 70 143 272
264 492 296 38 6 409 9 885 8 815 -2 821 -2 905 -24z m4696 17 c228 -31 423
-142 499 -280 23 -44 30 -69 33 -135 4 -72 1 -89 -21 -135 -74 -160 -280 -281
-528 -309 -63 -8 -355 -10 -884 -8 -781 4 -791 4 -875 26 -120 32 -234 90
-307 157 -283 256 -71 614 405 684 88 13 1586 13 1678 0z"/>
<path d="M39375 14879 c-42 -26 -186 -77 -268 -95 -59 -12 -1847 -14 -13526
-14 l-13458 0 -96 24 c-52 13 -127 38 -166 54 l-71 30 2 -1406 3 -1407 27 -73
c70 -191 202 -326 396 -401 l67 -26 13320 0 13320 0 72 26 c192 71 337 222
405 424 l23 70 3 1408 c2 1136 0 1407 -10 1406 -7 0 -26 -9 -43 -20z"/>
</g>
</svg>
