<?xml version="1.0" standalone="no"?>
<!DOCTYPE svg PUBLIC "-//W3C//DTD SVG 20010904//EN"
 "http://www.w3.org/TR/2001/REC-SVG-20010904/DTD/svg10.dtd">
<svg version="1.0" xmlns="http://www.w3.org/2000/svg"
 width="512.000000pt" height="512.000000pt" viewBox="0 0 512.000000 512.000000"
 preserveAspectRatio="xMidYMid meet">
<metadata>
Created by potrace 1.16, written by Peter Selinger 2001-2019
</metadata>
<g transform="translate(0.000000,512.000000) scale(0.100000,-0.100000)"
fill="#000000" stroke="none">
<path d="M4325 5100 c-98 -11 -199 -51 -280 -113 -57 -43 -2322 -2306 -2345
-2342 -23 -38 -321 -1106 -322 -1156 -1 -75 56 -132 131 -131 49 1 1119 299
1156 322 17 11 546 536 1177 1167 830 831 1157 1166 1187 1212 67 105 83 160
89 296 4 110 2 126 -23 200 -14 44 -44 107 -65 140 -47 72 -255 279 -325 322
-104 65 -249 97 -380 83z m200 -289 c34 -15 84 -57 167 -139 141 -142 163
-180 163 -292 0 -103 -28 -161 -133 -270 l-81 -85 -298 297 -298 298 45 46
c129 132 214 177 320 171 38 -2 86 -13 115 -26z m-1002 -1903 l-928 -928 -297
297 -298 298 927 927 928 928 297 -297 298 -298 -927 -927z m-1193 -1049 c0
-6 -622 -180 -627 -176 -1 2 37 145 85 320 l87 317 228 -228 c125 -125 227
-229 227 -233z"/>
<path d="M500 4594 c-227 -48 -427 -242 -485 -469 -13 -52 -15 -280 -15 -1820
0 -1748 0 -1761 21 -1835 57 -208 229 -381 444 -447 57 -17 144 -18 1965 -18
l1905 0 80 28 c102 36 179 83 250 153 97 96 163 222 184 354 7 40 11 294 11
665 0 581 -1 601 -20 633 -42 69 -120 90 -181 49 -71 -47 -69 -23 -69 -696 0
-674 1 -659 -69 -762 -21 -29 -62 -70 -92 -91 -106 -74 52 -68 -2021 -66
l-1863 3 -62 29 c-82 37 -161 120 -194 201 l-24 60 -3 1705 c-2 1246 0 1721 8
1765 24 121 97 215 210 269 l65 31 630 5 c595 5 632 6 661 24 89 54 84 185 -9
229 -32 15 -95 17 -649 16 -484 0 -627 -4 -678 -15z"/>
</g>
</svg>
