<?xml version="1.0" standalone="no"?>
<!DOCTYPE svg PUBLIC "-//W3C//DTD SVG 20010904//EN"
 "http://www.w3.org/TR/2001/REC-SVG-20010904/DTD/svg10.dtd">
<svg version="1.0" xmlns="http://www.w3.org/2000/svg"
 width="235.000000pt" height="215.000000pt" viewBox="0 0 235.000000 215.000000"
 preserveAspectRatio="xMidYMid meet">
<metadata>
Created by potrace 1.16, written by Peter Selinger 2001-2019
</metadata>
<g transform="translate(0.000000,215.000000) scale(0.100000,-0.100000)"
fill="#000000" stroke="none">
<path d="M590 1859 c0 -3 21 -63 46 -134 25 -71 43 -138 40 -148 -3 -11 1 -29
9 -41 20 -31 35 -203 35 -414 l0 -186 -39 80 c-22 46 -64 108 -101 149 -54 61
-132 161 -193 245 -17 24 -17 24 -1 -10 9 -19 34 -59 56 -88 41 -56 44 -71 10
-53 -41 22 -35 10 9 -17 90 -58 169 -161 210 -275 39 -111 36 -414 -7 -678
l-6 -36 48 -11 c27 -6 64 -13 83 -16 l34 -6 -6 37 c-4 21 -15 70 -25 108 -29
105 -45 271 -33 346 18 111 94 209 201 260 62 29 58 38 -4 10 -70 -31 -133
-80 -166 -130 l-30 -44 0 91 c0 230 118 414 373 579 56 37 107 71 112 76 10
10 -84 -39 -172 -90 -24 -14 -43 -23 -43 -21 0 1 11 35 25 73 13 39 24 81 24
95 0 14 -9 -6 -20 -43 -28 -98 -51 -138 -115 -199 -66 -63 -132 -154 -162
-223 l-22 -50 2 110 c3 98 6 116 31 165 16 30 38 66 50 80 l22 25 -24 -20
c-13 -11 -41 -46 -61 -78 l-37 -58 -6 75 c-4 42 -10 94 -13 115 -6 39 -6 40
30 46 30 6 39 14 55 50 38 85 39 82 -33 71 -52 -8 -66 -14 -70 -30 -5 -16 -19
8 -56 93 -45 103 -60 133 -60 120z"/>
<path d="M1207 1773 l-57 -4 35 -46 c44 -58 35 -72 -12 -18 l-35 40 28 -43 29
-43 75 6 c41 3 76 8 79 10 9 9 -66 107 -78 103 -3 -1 -32 -3 -64 -5z"/>
<path d="M1181 1201 c-19 -12 -73 -143 -62 -154 5 -5 34 -3 67 3 l59 12 27 65
26 64 -66 -7 c-68 -7 -79 2 -20 16 28 7 29 8 8 9 -14 0 -31 -3 -39 -8z"/>
<path d="M201 549 c-69 -21 -119 -77 -106 -119 12 -37 32 -30 38 12 7 53 42
88 94 95 67 9 94 -38 52 -91 -23 -30 -53 -36 -45 -8 20 69 20 72 -13 72 -17 0
-31 -3 -31 -6 0 -4 -40 -186 -55 -252 -5 -19 -1 -22 25 -22 23 0 31 5 35 23 3
12 11 49 18 82 14 63 33 79 62 55 20 -16 19 -80 -1 -108 -11 -17 -21 -21 -41
-16 -21 6 -24 3 -21 -12 4 -23 56 -31 88 -14 47 25 65 125 30 160 -19 19 -19
22 -5 43 20 29 19 70 -2 90 -24 21 -80 28 -122 16z"/>
<path d="M530 523 c-2 -33 -51 -227 -60 -238 -14 -16 -36 -20 -44 -7 -3 5 1
35 9 68 22 91 20 106 -12 102 -25 -3 -28 -9 -44 -83 -10 -44 -15 -90 -12 -103
7 -31 49 -40 86 -19 25 15 30 15 43 2 20 -20 74 -19 103 1 28 20 60 88 61 129
0 48 -26 78 -62 71 -24 -5 -28 -3 -24 12 20 69 20 72 -13 72 -17 0 -31 -3 -31
-7z"/>
<path d="M1336 513 c-3 -10 -15 -63 -27 -118 -23 -107 -31 -125 -60 -125 -24
0 -24 3 6 138 3 12 12 22 20 22 8 0 15 5 15 10 0 6 -5 10 -11 10 -8 0 -10 12
-6 34 5 33 5 33 -26 27 -25 -5 -33 -12 -35 -34 -2 -15 -8 -27 -13 -27 -6 0 -7
-9 -4 -20 7 -23 -10 -50 -31 -50 -8 0 -14 9 -14 19 0 29 -27 51 -62 51 -42 0
-94 -54 -103 -106 -9 -56 -13 -64 -30 -71 -29 -11 -35 10 -20 72 22 93 20 107
-12 103 -26 -3 -29 -8 -45 -83 -9 -44 -14 -90 -11 -103 7 -30 49 -40 85 -19
26 15 30 15 56 0 53 -30 113 5 132 78 8 30 25 49 45 49 1 0 -2 -21 -7 -46 -17
-79 15 -114 75 -83 16 9 22 9 25 0 2 -6 16 -11 31 -11 26 0 28 4 40 65 15 83
30 117 50 113 17 -4 17 -11 6 -95 -6 -37 -4 -57 5 -68 16 -19 50 -19 78 1 20
14 24 14 38 0 23 -23 74 -20 114 8 l35 23 10 -21 c12 -25 59 -33 82 -14 18 14
18 19 -3 -82 -5 -25 -3 -30 12 -30 11 0 25 4 32 8 10 7 72 259 72 297 0 10
-16 14 -65 14 -58 0 -68 -3 -94 -29 -17 -18 -34 -49 -40 -78 -13 -54 -54 -89
-91 -77 -36 11 -25 49 19 68 44 20 72 68 54 96 -13 21 -60 26 -91 10 -27 -15
-62 -77 -62 -109 0 -29 -18 -60 -35 -60 -22 0 -24 12 -10 73 7 31 11 66 8 77
-7 25 -44 35 -73 20 -22 -12 -22 -11 -16 25 4 20 10 43 13 51 4 10 -3 14 -25
14 -21 0 -32 -6 -36 -17z"/>
<path d="M1906 381 c-19 -84 -20 -123 -4 -139 18 -18 53 -14 73 8 l18 20 14
-20 c16 -23 50 -26 79 -6 17 12 22 12 39 0 25 -18 65 -18 93 2 31 21 27 32
-10 30 -26 -1 -34 3 -36 19 -2 16 7 25 36 38 26 12 44 28 53 48 17 41 2 63
-43 67 -46 4 -94 -41 -103 -96 -9 -53 -22 -82 -39 -82 -25 0 -25 12 -6 95 11
44 19 81 20 83 0 2 -14 2 -32 0 -31 -3 -32 -5 -48 -78 -18 -84 -25 -100 -46
-100 -20 0 -19 25 11 158 5 19 1 22 -24 22 -28 0 -30 -3 -45 -69z"/>
</g>
</svg>
