<?xml version="1.0" standalone="no"?>
<!DOCTYPE svg PUBLIC "-//W3C//DTD SVG 20010904//EN"
 "http://www.w3.org/TR/2001/REC-SVG-20010904/DTD/svg10.dtd">
<svg version="1.0" xmlns="http://www.w3.org/2000/svg"
 width="138.000000pt" height="130.000000pt" viewBox="0 0 138.000000 130.000000"
 preserveAspectRatio="xMidYMid meet">
<metadata>
Created by potrace 1.16, written by Peter Selinger 2001-2019
</metadata>
<g transform="translate(0.000000,130.000000) scale(0.100000,-0.100000)"
fill="#000000" stroke="none">
<path d="M488 1242 c-103 -31 -193 -63 -200 -70 -11 -11 -9 -17 10 -32 19 -16
22 -27 22 -99 0 -44 -5 -83 -10 -86 -14 -9 -12 -53 3 -58 9 -3 9 -7 -2 -20
-11 -14 -11 -18 3 -23 39 -15 43 -1 38 134 l-4 130 144 -45 c196 -62 224 -61
448 6 176 53 214 71 194 91 -15 15 -401 130 -433 129 -14 0 -110 -26 -213 -57z"/>
<path d="M410 931 c0 -49 4 -101 10 -115 8 -21 6 -26 -10 -31 -41 -13 -37
-110 6 -150 13 -12 24 -29 24 -37 0 -8 18 -40 40 -71 l39 -57 -26 -31 c-31
-37 -43 -42 -203 -83 -146 -38 -176 -52 -218 -101 -54 -61 -83 -199 -49 -233
16 -16 64 -17 667 -17 603 0 651 1 667 17 34 34 5 172 -49 233 -42 49 -72 63
-220 101 -148 38 -191 56 -213 90 -14 22 -14 26 9 61 14 21 31 54 37 73 7 19
23 44 37 56 19 15 26 33 30 72 2 31 0 57 -6 65 -8 10 -9 31 -2 73 15 89 13
174 -4 174 -7 0 -58 -14 -112 -31 -130 -42 -188 -42 -325 -1 -59 18 -112 32
-118 32 -7 0 -11 -31 -11 -89z m140 -126 c84 -18 209 -19 285 0 33 8 63 14 68
15 4 0 7 -44 7 -97 0 -75 -5 -108 -20 -141 -31 -69 -69 -110 -126 -138 -66
-32 -122 -28 -182 16 -90 65 -121 133 -122 268 0 104 -6 98 90 77z m29 -381
c68 -44 168 -42 231 6 24 18 24 18 47 -13 13 -17 23 -36 23 -43 0 -25 -52 -73
-95 -90 -93 -35 -209 -2 -268 77 -19 26 -19 28 -1 58 10 17 20 31 21 31 2 0
21 -12 42 -26z"/>
</g>
</svg>
