<?xml version="1.0" standalone="no"?>
<!DOCTYPE svg PUBLIC "-//W3C//DTD SVG 20010904//EN"
 "http://www.w3.org/TR/2001/REC-SVG-20010904/DTD/svg10.dtd">
<svg version="1.0" xmlns="http://www.w3.org/2000/svg"
 width="126.000000pt" height="126.000000pt" viewBox="0 0 126.000000 126.000000"
 preserveAspectRatio="xMidYMid meet">
<metadata>
Created by potrace 1.16, written by Peter Selinger 2001-2019
</metadata>
<g transform="translate(0.000000,126.000000) scale(0.100000,-0.100000)"
fill="#000000" stroke="none">
<path d="M12 1218 c-17 -17 -17 -549 0 -566 9 -9 103 -12 363 -12 l350 0 -47
30 -48 30 -285 0 -285 0 0 235 0 235 325 0 325 0 0 -155 0 -154 30 -16 30 -16
-2 198 -3 198 -370 3 c-280 2 -374 -1 -383 -10z"/>
<path d="M973 1126 c-22 -19 -28 -32 -28 -66 0 -34 6 -47 28 -66 62 -53 147
-15 147 66 0 80 -86 118 -147 66z"/>
<path d="M874 926 c-47 -21 -64 -52 -64 -118 0 -32 -2 -58 -5 -58 -2 0 -26 14
-52 30 -26 17 -54 30 -64 30 -24 0 -42 -26 -35 -52 8 -30 174 -131 208 -126
22 3 23 8 28 102 3 66 9 101 17 103 10 4 13 -82 15 -393 l3 -399 27 -9 c22 -8
32 -6 48 9 19 17 20 30 20 242 0 190 2 223 15 223 12 0 15 -35 17 -232 l3
-233 27 -9 c22 -8 32 -6 48 9 19 18 20 29 20 407 0 252 4 388 10 388 6 0 10
-65 10 -174 0 -145 3 -177 16 -190 20 -20 38 -20 58 0 13 13 16 45 16 190 0
204 -8 236 -66 260 -64 27 -84 17 -110 -51 -20 -53 -23 -56 -23 -28 -1 17 -6
35 -11 38 -7 4 -7 12 0 24 11 21 4 31 -22 31 -16 0 -19 -5 -13 -29 4 -17 2
-32 -5 -36 -7 -4 -9 -20 -5 -38 3 -19 -6 -5 -22 33 -32 72 -51 82 -109 56z"/>
</g>
</svg>
